<?xml version="1.0" encoding="UTF-8"?>
<svg id="Lager_1" data-name="Lager 1" xmlns="http://www.w3.org/2000/svg" viewBox="0 0 203.53 191.19">
  <defs>
    <style>
      .cls-1 {
        fill: none;
        stroke: #000;
        stroke-miterlimit: 10;
        stroke-width: 19px;
      }
    </style>
  </defs>
  <path d="M98.39,30.82V191.19l-21.24-32.58v-26.46h-24.66l-12.96,26.46H15.59L75.35,41.98l-9.72-11.16h32.76Zm-18.36,44.46l-18.9,38.7h18.9v-38.7Z"/>
  <path d="M137.12,30.82l-9.72,11.16,59.76,116.64h-23.94s-12.96-26.46-12.96-26.46h-24.66s0,26.46,0,26.46l-21.24,32.58V30.82h32.76Zm-14.4,83.16h18.9s-18.9-38.7-18.9-38.7v38.7Z"/>
  <path class="cls-1" d="M24.09,151.58c-9.23-14.37-14.59-31.46-14.59-49.81C9.5,50.81,50.81,9.5,101.76,9.5s92.26,41.31,92.26,92.26c0,18.89-5.68,36.46-15.42,51.08"/>
</svg>