<svg width="32" height="32" viewBox="0 0 32 32" fill="none" xmlns="http://www.w3.org/2000/svg">
<path fill-rule="evenodd" clip-rule="evenodd" d="M3 16C3 8.82 8.82 3 16 3C23.18 3 29 8.82 29 16C29 23.18 23.18 29 16 29C8.82 29 3 23.18 3 16ZM18.1707 10.7773C16.984 9.74133 15.016 9.74133 13.8307 10.7773C13.631 10.952 13.3702 11.0403 13.1055 11.0226C12.8409 11.005 12.594 10.883 12.4193 10.6833C12.2446 10.4837 12.1564 10.2229 12.174 9.9582C12.1917 9.69352 12.3137 9.44669 12.5133 9.272C14.452 7.576 17.548 7.576 19.4867 9.272C21.504 11.0373 21.504 13.9627 19.4867 15.728C19.1493 16.0222 18.7739 16.2697 18.3707 16.464C17.4693 16.9013 17 17.496 17 18V19C17 19.2652 16.8946 19.5196 16.7071 19.7071C16.5196 19.8946 16.2652 20 16 20C15.7348 20 15.4804 19.8946 15.2929 19.7071C15.1054 19.5196 15 19.2652 15 19V18C15 16.2947 16.4133 15.1907 17.5 14.664C17.7427 14.5467 17.968 14.3987 18.1707 14.2227C19.2773 13.2533 19.2773 11.7467 18.1707 10.7773ZM16 24C16.2652 24 16.5196 23.8946 16.7071 23.7071C16.8946 23.5196 17 23.2652 17 23C17 22.7348 16.8946 22.4804 16.7071 22.2929C16.5196 22.1054 16.2652 22 16 22C15.7348 22 15.4804 22.1054 15.2929 22.2929C15.1054 22.4804 15 22.7348 15 23C15 23.2652 15.1054 23.5196 15.2929 23.7071C15.4804 23.8946 15.7348 24 16 24Z" fill="#555555"/>
</svg>
